<svg width="160" height="36" viewBox="0 0 160 36" fill="none" xmlns="http://www.w3.org/2000/svg">
<path d="M20.19 36.0006H12.616C12.6115 32.6601 11.2806 29.4581 8.916 27.0986C6.54937 24.7367 3.34353 23.4085 0 23.4046V15.8476C10.212 15.0806 19.42 24.2466 20.19 36.0006Z" fill="#B248FF"/>
<path d="M0.00390625 23.404V15.847C4.21211 15.8444 8.24777 14.1742 11.2269 11.202C12.7005 9.73198 13.8701 7.98611 14.669 6.06407C15.4679 4.14203 15.8804 2.08145 15.8829 0H23.4379C23.4305 6.20535 20.9595 12.1539 16.5679 16.538C12.1716 20.9268 6.21591 23.3956 0.00390625 23.404Z" fill="#00A8FF"/>
<path d="M36.0629 20.153C30.7143 20.1445 25.5866 18.0185 21.8009 14.24C18.0187 10.4653 15.8895 5.34358 15.8809 0H23.4369C23.4414 3.3405 24.7722 6.54252 27.1369 8.902C29.5041 11.2643 32.7107 12.5926 36.0549 12.596L36.0629 20.153Z" fill="#FF4352"/>
<path d="M20.1902 35.9997H12.6152C12.6231 29.7918 15.0964 23.8413 19.4912 19.4567C23.8906 15.0676 29.8499 12.6006 36.0642 12.5957V20.1517C31.8568 20.156 27.8225 21.8269 24.8442 24.7987C21.8693 27.7678 20.1953 31.7967 20.1902 35.9997Z" fill="#46E650"/>
<path d="M53.9312 0.004L45.8652 18.446H49.3942L51.4362 13.723H59.2482L61.3072 18.444H64.8702L56.8042 0L53.9312 0.004ZM52.7632 10.661L55.3422 4.75L57.9152 10.661H52.7632ZM153.89 5.101C151.623 5.101 149.624 5.916 148.39 7.331L148.266 7.477L150.124 9.424L150.279 9.263C150.735 8.79991 151.282 8.43579 151.885 8.19337C152.489 7.95095 153.135 7.83543 153.785 7.854C154.915 7.854 156.771 8.178 156.92 10.286C156.027 10.076 155.113 9.96999 154.196 9.97C151.106 9.97 147.806 11.153 147.806 14.471C147.806 17.371 150.343 18.693 152.695 18.693C154.313 18.7239 155.878 18.1226 157.059 17.017L157.208 18.444H159.999V10.64C159.997 6.56 156.842 5.103 153.89 5.103V5.1V5.101ZM153.001 15.939C151.605 15.939 150.873 15.183 150.873 14.429C150.873 13.472 152.025 12.509 154.22 12.509C155.121 12.5212 156.016 12.665 156.875 12.936C156.765 14.712 154.782 15.939 152.995 15.939H153.001ZM146.058 5.339H142.068L137.372 10.435V5.34H134.149V18.453H137.372V13.329L142.681 18.447H147.002L140.116 11.779L146.058 5.339ZM98.3282 5.086C96.5565 5.10531 94.8642 5.82422 93.6202 7.086C92.3778 8.34692 91.6858 10.0488 91.6957 11.8189C91.7057 13.5891 92.4168 15.2831 93.6732 16.53C94.9309 17.7784 96.6311 18.479 98.4032 18.479C100.175 18.479 101.876 17.7784 103.133 16.53C104.389 15.283 105.1 13.5892 105.11 11.8194C105.12 10.0496 104.428 8.348 103.186 7.087C101.942 5.82507 100.249 5.10616 98.4772 5.087H98.3282V5.086ZM98.3282 15.686C96.2292 15.686 94.7022 14.09 94.7022 11.889C94.7022 9.687 96.2292 8.091 98.3282 8.091C100.428 8.091 101.931 9.689 101.931 11.889C101.931 14.089 100.413 15.684 98.3222 15.684L98.3282 15.686ZM76.7222 11.444C77.3142 10.839 77.6422 10.024 77.6322 9.179C77.6322 7.406 76.3932 5.335 72.8912 5.335H66.8772V18.449H73.6162C77.1652 18.449 78.4312 16.396 78.4312 14.477C78.4309 13.8656 78.2722 13.2646 77.9706 12.7328C77.669 12.2009 77.2348 11.7562 76.7102 11.442L76.7222 11.444ZM70.1042 8.011H72.9852C73.5142 8.011 74.4022 8.168 74.4022 9.218C74.4022 10.335 73.4122 10.454 72.9852 10.454H70.1002L70.1042 8.011ZM73.6062 15.656H70.0992V12.904H73.5992C74.6192 12.904 75.2162 13.407 75.2162 14.292C75.2162 15.177 74.6032 15.656 73.5992 15.656H73.6052H73.6062ZM106.074 8.238H109.884V18.448H113.104V8.244H117.092V5.333H106.066V8.243L106.074 8.238ZM125.064 5.072C121.162 5.072 118.22 8.002 118.22 11.884C118.22 15.894 121.036 18.694 125.064 18.694C127.693 18.694 129.814 17.611 131.041 15.65L131.146 15.482L128.66 13.719L128.542 13.923C127.799 15.133 126.637 15.758 125.087 15.758C123.071 15.758 121.616 14.551 121.411 12.738H131.372V12.535C131.397 12.127 131.397 11.882 131.397 11.609C131.411 7.096 128.23 5.086 125.067 5.086L125.064 5.072ZM121.581 10.254C122.085 8.492 123.7 7.858 124.968 7.858C126.557 7.858 127.766 8.79 128.117 10.254H121.581ZM79.5482 8.242H83.3602V18.448H86.5832V8.244H90.5732V5.333H79.5462V8.243L79.5482 8.242ZM57.5892 26.751C57.1639 26.7478 56.7424 26.8312 56.3504 26.9963C55.9584 27.1613 55.6041 27.4045 55.3092 27.711V26.867H54.1452V36H55.3092V32.512C55.6039 32.8187 55.9582 33.0621 56.3502 33.2271C56.7422 33.3922 57.1638 33.4755 57.5892 33.472C58.4832 33.472 59.3402 33.118 59.9722 32.487C60.4446 32.0171 60.7666 31.4173 60.8973 30.7639C61.0279 30.1105 60.9614 29.433 60.706 28.8175C60.4507 28.202 60.0182 27.6764 59.4634 27.3073C58.9085 26.9383 58.2565 26.7426 57.5902 26.745V26.751H57.5892ZM57.5122 32.311C57.0766 32.3108 56.6507 32.1817 56.2884 31.9398C55.9261 31.698 55.6435 31.3542 55.4762 30.952C55.3513 30.6514 55.2947 30.3267 55.3106 30.0015C55.3266 29.6763 55.4145 29.3588 55.5682 29.0718C55.7219 28.7848 55.9375 28.5355 56.1993 28.342C56.4612 28.1485 56.7627 28.0157 57.0822 27.953C57.5095 27.8682 57.9524 27.9119 58.355 28.0784C58.7575 28.245 59.1017 28.5271 59.3442 28.889C59.6269 29.312 59.754 29.82 59.7038 30.3262C59.6537 30.8325 59.4294 31.3057 59.0692 31.665C58.656 32.0775 58.0961 32.3094 57.5122 32.31V32.311ZM75.6992 30.506H70.3322C70.4202 31.029 70.6982 31.5 71.1142 31.829C71.5562 32.159 72.0982 32.329 72.6492 32.309C73.4952 32.309 74.1072 31.998 74.4872 31.377L75.4352 31.913C74.8052 32.875 73.8652 33.356 72.6192 33.356C72.1628 33.3725 71.7077 33.2973 71.2809 33.1348C70.854 32.9723 70.4641 32.7258 70.1342 32.41C69.8225 32.0915 69.5779 31.7136 69.415 31.2987C69.2522 30.8839 69.1744 30.4405 69.1862 29.995C69.1713 29.5522 69.2465 29.1109 69.4072 28.6981C69.5679 28.2852 69.8109 27.9092 70.1212 27.593C70.4357 27.2736 70.8134 27.0232 71.23 26.858C71.6467 26.6927 72.0933 26.616 72.5412 26.633C72.9733 26.6195 73.4031 26.7019 73.7995 26.8743C74.196 27.0467 74.5494 27.3048 74.8342 27.63C75.4302 28.277 75.7512 29.13 75.7292 30.009C75.7302 30.175 75.7202 30.341 75.6992 30.506ZM72.5472 27.681C72.0104 27.664 71.4855 27.8416 71.0692 28.181C70.6653 28.5267 70.4029 29.0091 70.3322 29.536H74.6202C74.5588 29.0096 74.3083 28.5235 73.9152 28.168C73.5362 27.841 73.0482 27.668 72.5472 27.681ZM65.0352 26.633C64.3698 26.6336 63.7195 26.831 63.1661 27.2004C62.6127 27.5698 62.1809 28.0947 61.9252 28.709C61.6704 29.3233 61.6039 29.9994 61.734 30.6516C61.8642 31.3038 62.1851 31.9026 62.6562 32.372C63.1275 32.8413 63.7271 33.1607 64.3795 33.2899C65.0319 33.4191 65.708 33.3524 66.3225 33.0982C66.9371 32.8439 67.4627 32.4135 67.8331 31.8611C68.2036 31.3087 68.4023 30.6591 68.4042 29.994C68.4029 29.1023 68.0475 28.2477 67.4162 27.618C66.784 26.9877 65.9279 26.6335 65.0352 26.633ZM65.0352 32.196C64.5992 32.1959 64.173 32.0666 63.8103 31.8246C63.4476 31.5826 63.1647 31.2386 62.9972 30.836C62.8721 30.5352 62.8154 30.2103 62.8313 29.8849C62.8472 29.5594 62.9352 29.2416 63.089 28.9544C63.2428 28.6672 63.4586 28.4178 63.7206 28.2242C63.9827 28.0306 64.2845 27.8976 64.6042 27.835C65.0318 27.7503 65.4749 27.794 65.8778 27.9606C66.2806 28.1271 66.6252 28.4091 66.8682 28.771C67.1517 29.1944 67.2793 29.703 67.2293 30.2101C67.1794 30.7171 66.9549 31.1911 66.5942 31.551C66.1802 31.9641 65.6191 32.1961 65.0342 32.196H65.0352ZM82.4602 27.911H84.5292V33.24H85.6932V27.91H87.7612V26.748H82.4612V27.91L82.4602 27.911ZM79.2522 29.89L82.2222 33.24H80.6792L77.9042 30.12V33.24H76.7692V26.749H77.9042V29.666L80.5482 26.749H82.0942L79.2522 29.89ZM47.2412 26.749V33.239H48.3732V27.839H51.5482V33.239H52.6792V26.749H47.2412ZM94.4872 24.005L90.9222 33.24H92.2742L93.1562 30.891H97.0542L97.9362 33.24H99.2882L95.7252 24.005H94.4872ZM93.6302 29.73L95.1042 25.856L96.5802 29.729H93.6302V29.73ZM101.238 33.24H102.396L104.914 26.751H103.564L101.798 31.395H101.867L100.101 26.749H98.7452L101.238 33.239V33.24ZM116.508 26.633C115.843 26.6334 115.192 26.8307 114.639 27.1999C114.085 27.5691 113.653 28.0938 113.397 28.708C113.207 29.1675 113.121 29.6635 113.145 30.1602C113.17 30.657 113.304 31.1421 113.539 31.5805C113.774 32.019 114.103 32.3999 114.503 32.6957C114.903 32.9914 115.363 33.1948 115.851 33.291C116.504 33.4201 117.181 33.3533 117.796 33.0988C118.411 32.8444 118.937 32.4137 119.308 31.861C119.74 31.2147 119.934 30.4384 119.858 29.6648C119.781 28.8911 119.439 28.1681 118.888 27.619C118.257 26.9885 117.401 26.6339 116.508 26.633ZM116.508 32.196C116.183 32.1958 115.861 32.1234 115.567 31.9842C115.272 31.8451 115.013 31.6424 114.806 31.3909C114.599 31.1394 114.451 30.8453 114.371 30.5296C114.291 30.2139 114.282 29.8845 114.345 29.565C114.409 29.2452 114.543 28.9436 114.737 28.6818C114.931 28.42 115.181 28.2046 115.469 28.051C115.757 27.8975 116.075 27.8097 116.4 27.794C116.726 27.7782 117.051 27.8349 117.352 27.96C117.825 28.1535 118.215 28.5053 118.457 28.9552C118.699 29.4051 118.776 29.9251 118.676 30.4259C118.577 30.9267 118.306 31.3773 117.91 31.7002C117.514 32.0232 117.019 32.1985 116.508 32.196ZM110.568 31.163C110.568 31.221 110.572 31.28 110.58 31.338C110.613 31.558 110.724 31.758 110.893 31.903C111.051 32.041 111.244 32.133 111.452 32.168C111.534 32.182 111.616 32.188 111.699 32.188H112.569V33.24H111.438C111.136 33.2168 110.84 33.1356 110.568 33.001C110.394 32.9153 110.232 32.807 110.086 32.679C109.874 32.4909 109.706 32.2585 109.594 31.9982C109.482 31.738 109.428 31.4563 109.437 31.173V27.85H108.305V26.76H109.437V25.404H110.568V26.759H112.569V27.85H110.568V31.163ZM105.945 26.749H107.076V33.239H105.945V26.749ZM106.51 25.879C106.708 25.8793 106.898 25.8008 107.039 25.6609C107.179 25.521 107.258 25.3311 107.258 25.133C107.258 24.9349 107.18 24.7448 107.04 24.6045C106.9 24.4642 106.71 24.3853 106.512 24.385C106.314 24.3847 106.124 24.4632 105.984 24.6031C105.843 24.743 105.764 24.9329 105.764 25.131C105.764 25.3291 105.842 25.5192 105.982 25.6595C106.122 25.7998 106.312 25.8787 106.51 25.879Z" fill="black"/>
</svg>
